<?xml version="1.0" encoding="UTF-8"?>
<svg width="20px" height="20px" viewBox="0 0 20 20" version="1.1" xmlns="http://www.w3.org/2000/svg" xmlns:xlink="http://www.w3.org/1999/xlink">
    <!-- Generator: Sketch 64 (93537) - https://sketch.com -->
    <title>social-facebook-green</title>
    <desc>Created with Sketch.</desc>
    <g id="social-facebook-green" stroke="none" stroke-width="1" fill="none" fill-rule="evenodd">
        <rect fill="none" x="0" y="0" width="20" height="20"></rect>
        <path d="M13.7369991,4.00234076 L12.0578005,4 C10.1715014,4 8.95213355,5.15930193 8.95213355,6.95326276 L8.95213355,8.31511873 L7.26367441,8.31511873 C7.11836725,8.31511873 7,8.42419829 7,8.5594944 L7,10.5327577 C7,10.6674296 7.11836725,10.7771333 7.26367441,10.7771333 L8.95213355,10.7771333 L8.95213355,15.7556243 C8.95213355,15.8902962 9.07050079,16 9.21648145,16 L11.4184827,16 C11.5644634,16 11.6828306,15.8902962 11.6828306,15.7556243 L11.6828306,10.7771333 L13.6566845,10.7771333 C13.8026651,10.7771333 13.9205273,10.6674296 13.9205273,10.5327577 L13.9217059,8.5594944 C13.9217059,8.49488933 13.893419,8.43278109 13.8440852,8.38643398 C13.7947515,8.34071107 13.7277385,8.31511873 13.657358,8.31511873 L11.6828306,8.31511873 L11.6828306,7.16065437 C11.6828306,6.60589352 11.8256122,6.3242217 12.6050176,6.3242217 L13.7363256,6.32359749 C13.8823062,6.32359749 14,6.21389373 14,6.07922183 L14,4.24749668 C14,4.11204453 13.8823062,4.00296497 13.7369991,4.00234076 Z" id="facebook-logo" fill="#257B83"></path>
    </g>
</svg>
