<?xml version="1.0" encoding="UTF-8"?>
<svg fill="#2F939C" color="#2F939C" width="20px" height="20px" viewBox="0 0 20 20" version="1.1" xmlns="http://www.w3.org/2000/svg" xmlns:xlink="http://www.w3.org/1999/xlink">
    <!-- Generator: Sketch 64 (93537) - https://sketch.com -->
    <title>social-youtube</title>
    <desc>Created with Sketch.</desc>
    <g color="#2F939C" id="social-youtube" stroke="none" stroke-width="1" fill="none" fill-rule="evenodd" opacity="0.5">
        <path d="M16.6697436,6.6090046 C16.4994103,5.84536057 15.894359,5.28276319 15.1658205,5.19890119 C13.4411282,5.00007605 11.6952564,4.99933555 9.95728205,5.00007605 C8.21912821,4.99933555 6.47271795,5.00007605 4.74784615,5.19890119 C4.02020513,5.28276319 3.41497436,5.84536057 3.24535897,6.6090046 C3.00287179,7.69513781 3,8.88123897 3,9.99995434 C3,11.1186697 3,12.3053262 3.24266667,13.3914595 C3.41228205,14.154363 4.01733333,14.7177009 4.74587179,14.8015629 C6.4705641,14.9998326 8.21625641,15.0011285 9.95441026,14.9998326 C11.6932821,15.0011285 13.4389744,14.9998326 15.1631282,14.8015629 C15.8914872,14.7177009 16.4965385,14.154363 16.6670513,13.3914595 C16.9095385,12.3053262 16.9102564,11.1186697 16.9102564,9.99995434 C16.9102564,8.88123897 16.9124103,7.69513781 16.6697436,6.6090046 Z M8,12.1938364 L8,8 C9.47376923,8.70118182 10.9383846,9.39729091 12.4220256,10.1030545 C10.9426923,10.8022727 9.47789744,11.4951091 8,12.1938364 Z" id="Fill-1" fill="#FFFFFF"></path>
    </g>
</svg>
