<?xml version="1.0" encoding="UTF-8"?>
<svg width="20px" height="20px" viewBox="0 0 20 20" version="1.1" xmlns="http://www.w3.org/2000/svg" xmlns:xlink="http://www.w3.org/1999/xlink">
    <!-- Generator: Sketch 64 (93537) - https://sketch.com -->
    <title>social-linkedin-green</title>
    <desc>Created with Sketch.</desc>
    <g id="social-linkedin-green" stroke="none" stroke-width="1" fill="none" fill-rule="evenodd">
        <rect fill="#FFFFFF" x="0" y="0" width="20" height="20"></rect>
        <path d="M6.08159393,7.16871422 L6.08159393,16 L3.35294118,16 L3.35294118,7.16871422 L6.08159393,7.16871422 Z M13.5370019,7.08382037 C15.4762808,7.08382037 17,8.35412691 17,11.0897245 L17,11.0897245 L17,16 L13.9058824,16 L13.9058824,11.4300751 C13.9058824,10.2338084 13.4220114,9.41743201 12.3574953,9.41743201 C11.5434535,9.41743201 11.0907021,9.9682729 10.8800759,10.499344 C10.8011385,10.6900644 10.8132827,10.9556 10.8132827,11.2211355 L10.8132827,11.2211355 L10.8132827,16 L7.74800759,16 C7.74800759,16 7.78747628,7.90484852 7.74800759,7.16871422 L7.74800759,7.16871422 L10.8132827,7.16871422 L10.8132827,8.55492605 C10.9943074,7.94865219 11.973814,7.08382037 13.5370019,7.08382037 Z M4.66679317,3 C5.67362429,3 6.29259962,3.65938096 6.31233397,4.53080272 C6.31233397,5.38671875 5.67362429,6.06431894 4.64781784,6.06431894 L4.64781784,6.06431894 L4.62808349,6.06431894 C3.64060721,6.06431894 3,5.38904461 3,4.53312858 C3,3.66093154 3.65920304,3 4.66679317,3 Z" id="Fill-88" fill="#257B83"></path>
    </g>
</svg>