<?xml version="1.0" encoding="UTF-8"?>
<svg width="20px" height="20px" viewBox="0 0 20 20" version="1.1" xmlns="http://www.w3.org/2000/svg" xmlns:xlink="http://www.w3.org/1999/xlink">
    <!-- Generator: Sketch 64 (93537) - https://sketch.com -->
    <title>social-twitter</title>
    <desc>Created with Sketch.</desc>
    <g id="social-twitter" stroke="#2F939C" stroke-width="1" fill="#2F939C" fill-rule="evenodd" opacity="0.5">
        <path d="M14.7885884,4.95581686 C14.2660134,4.36756272 13.5191573,4 12.6923077,4 C11.1073879,4 9.82113582,5.35644484 9.82113582,7.02931659 C9.82113582,7.26692512 9.84580674,7.49722854 9.89514859,7.7190734 C7.50805009,7.59257954 5.39195792,6.38800423 3.97450138,4.552882 C3.72704456,5.00195444 3.58574747,5.52292461 3.58574747,6.07772901 C3.58574747,7.1281279 4.09262275,8.05549326 4.86377593,8.59876326 C4.39353323,8.58415302 3.94983045,8.44650924 3.56182415,8.22120406 L3.56182415,8.25811413 C3.56182415,9.7264426 4.5520252,10.9513953 5.86706005,11.2286053 C5.62633167,11.2997341 5.37214642,11.3354907 5.11011134,11.3354907 C4.92507943,11.3354907 4.74453315,11.3170357 4.56959389,11.2816635 C4.93517208,12.4847009 5.99527408,13.3609304 7.25236964,13.3843837 C6.26964462,14.1971741 5.03049155,14.6816187 3.68517876,14.6816187 C3.45342162,14.6816187 3.2242811,14.6677774 3,14.6400948 C4.27092623,15.4982538 5.78145943,16 7.40301177,16 C12.6867007,16 15.5750674,11.3847041 15.5750674,7.38111563 C15.5750674,7.24923905 15.5728246,7.11774695 15.5679652,6.98856173 C16.1290417,6.56140463 16.6164793,6.02813111 17,5.42065297 C16.4856487,5.66133735 15.9316744,5.8243568 15.3507863,5.89740797 C15.9440098,5.52292461 16.3993005,4.92928775 16.6138627,4.22184486 C16.0583932,4.56864567 15.4446106,4.82086444 14.7885884,4.95581686 Z" id="Twitter" fill="#FFFFFF"></path>
    </g>
</svg>
