<?xml version="1.0" encoding="UTF-8"?>
<svg width="20px" height="20px" viewBox="0 0 20 20" version="1.1" xmlns="http://www.w3.org/2000/svg" xmlns:xlink="http://www.w3.org/1999/xlink">
    <!-- Generator: Sketch 64 (93537) - https://sketch.com -->
    <title>social-instagram-green</title>
    <desc>Created with Sketch.</desc>
    <g id="social-instagram-green" stroke="none" stroke-width="1" fill="none" fill-rule="evenodd">
        <rect fill="#FFFFFF" x="0" y="0" width="20" height="20"></rect>
        <path d="M10.6705044,4.00057697 C11.7024563,4.00273605 11.9323722,4.01151378 12.471119,4.03609524 C13.1095476,4.06521429 13.5455714,4.16661905 13.9270952,4.31490476 C14.3215238,4.46816667 14.6560238,4.6732619 14.9895,5.00671429 C15.3229524,5.34019048 15.5280476,5.67469048 15.6813333,6.06911905 C15.8295952,6.45064286 15.931,6.88666667 15.960119,7.52509524 C15.9893095,8.16485714 15.9962143,8.36911905 15.9962143,9.99811905 L15.9961547,10.2437573 C15.9954257,11.6498029 15.9877732,11.8650288 15.960119,12.471119 C15.931,13.1095476 15.8295952,13.5455714 15.6813333,13.9270952 C15.5280476,14.3215238 15.3229524,14.6560238 14.9895,14.9895 C14.6560238,15.3229524 14.3215238,15.5280476 13.9270952,15.6813333 C13.5455714,15.8295952 13.1095476,15.931 12.471119,15.960119 C11.8313571,15.9893095 11.6270952,15.9962143 9.99811905,15.9962143 L9.75247724,15.9961547 C8.34641142,15.9954257 8.13118546,15.9877732 7.52509524,15.960119 C6.88666667,15.931 6.45064286,15.8295952 6.06911905,15.6813333 C5.67469048,15.5280476 5.34019048,15.3229524 5.00671429,14.9895 C4.6732619,14.6560238 4.46816667,14.3215238 4.31490476,13.9270952 C4.16661905,13.5455714 4.06521429,13.1095476 4.03609524,12.471119 C4.01151378,11.9323722 4.00273605,11.7024563 4.00057697,10.6705044 L4.00057697,9.32572412 C4.00273605,8.29375795 4.01151378,8.06384211 4.03609524,7.52509524 C4.06521429,6.88666667 4.16661905,6.45064286 4.31490476,6.06911905 C4.46816667,5.67469048 4.6732619,5.34019048 5.00671429,5.00671429 C5.34019048,4.6732619 5.67469048,4.46816667 6.06911905,4.31490476 C6.45064286,4.16661905 6.88666667,4.06521429 7.52509524,4.03609524 C8.06384211,4.01151378 8.29375795,4.00273605 9.32572412,4.00057697 Z M10.3339782,8 C9.04494538,8 8,9.04494538 8,10.3339782 C8,11.6229832 9.04494538,12.6679286 10.3339782,12.6679286 C11.6229832,12.6679286 12.6679286,11.6229832 12.6679286,10.3339782 C12.6679286,9.04494538 11.6229832,8 10.3339782,8 Z M12.7197619,7.43954762 C12.3222619,7.43954762 12,7.11730952 12,6.71978571 C12,6.3222619 12.3222619,6 12.7197619,6 C13.1172857,6 13.4395476,6.3222619 13.4395476,6.71978571 C13.4395476,7.11730952 13.1172857,7.43954762 12.7197619,7.43954762 Z" id="Combined-Shape" fill="#257B83"></path>
    </g>
</svg>