<?xml version="1.0" encoding="utf-8"?>
<!-- Generator: Adobe Illustrator 24.1.0, SVG Export Plug-In . SVG Version: 6.00 Build 0)  -->
<svg version="1.1" id="Layer_1" xmlns="http://www.w3.org/2000/svg" xmlns:xlink="http://www.w3.org/1999/xlink" x="0px" y="0px"
	 viewBox="0 0 476.8 85" style="enable-background:new 0 0 476.8 85;" xml:space="preserve">
<style type="text/css">
	.st0{fill:#FFFFFF;}
	.st1{fill:none;stroke:#FFFFFF;stroke-width:1.731;stroke-miterlimit:10;}
	.st2{fill:#FFD400;}
	.st3{fill:none;stroke:#D1D3D4;stroke-width:0.934;stroke-linecap:round;stroke-linejoin:round;}
</style>
<g>
	<path class="st0" d="M280.8,31.8c2.3,0,4.2,0.8,5.7,2.3c1.5,1.5,2.3,3.7,2.3,6.4v13h-5.4V41.2c0-1.4-0.4-2.5-1.1-3.2
		c-0.8-0.7-1.8-1.1-3-1.1c-1.4,0-2.5,0.4-3.4,1.3c-0.8,0.9-1.3,2.2-1.3,3.9v11.4h-5.4V32.4h5.4v2.4C275.9,32.8,278,31.8,280.8,31.8"
		/>
	<path class="st0" d="M304.6,28.6c-3-0.2-4.5,1-4.5,3.6v0.2h4.5v5.2h-4.5v15.9h-5.4V37.6h-3v-5.2h3v-0.2c0-3,0.8-5.3,2.5-6.8
		c1.7-1.5,4.1-2.2,7.4-2V28.6z"/>
	<path class="st0" d="M313,36c0.5-1.4,1.3-2.4,2.5-3c1.2-0.7,2.5-1,3.9-1V38c-1.7-0.2-3.1,0.1-4.4,1c-1.3,0.9-2,2.3-2,4.4v10.1h-5.4
		V32.4h5.4V36z"/>
	<path class="st0" d="M324.9,29.8c-0.9,0-1.7-0.3-2.3-1c-0.7-0.7-1-1.4-1-2.3c0-0.9,0.3-1.7,1-2.4c0.7-0.7,1.4-1,2.3-1
		c0.9,0,1.7,0.3,2.4,1c0.7,0.7,1,1.5,1,2.4c0,0.9-0.3,1.7-1,2.3C326.7,29.5,325.9,29.8,324.9,29.8 M322.2,32.4h5.4v21.1h-5.4V32.4z"
		/>
	<path class="st0" d="M237.3,45.5c-1,1.7-2.8,2.8-4.9,2.8c-3.1,0-5.6-2.5-5.6-5.6c0-3.1,2.5-5.6,5.6-5.6c2.1,0,3.9,1.1,4.9,2.8
		l4.5-2.6c-1.9-3.2-5.4-5.4-9.4-5.4c-6,0-10.8,4.9-10.8,10.9c0,6,4.8,10.9,10.8,10.9c4,0,7.5-2.2,9.4-5.4L237.3,45.5z"/>
	<path class="st0" d="M265.9,44.4c0.1-0.6,0.2-1.2,0.2-1.8c0-6-4.8-10.9-10.8-10.9c-6,0-10.8,4.9-10.8,10.9c0,6,4.8,10.9,10.8,10.9
		c4.5,0,8.4-2.8,10-6.7h-6c-1,1-2.5,1.7-4,1.7c-2.6,0-4.7-1.7-5.5-4H265.9z M255.3,36.9c2.3,0,4.4,1.4,5.3,3.4H250
		C250.9,38.3,252.9,36.9,255.3,36.9"/>
	<path class="st0" d="M198.6,34.9v4.8c-1.6,0-3,1.3-3,3c0,1.6,1.3,3,3,3v4.8c-4.3,0-7.7-3.5-7.7-7.8
		C190.8,38.3,194.3,34.9,198.6,34.9"/>
	<path class="st0" d="M198.6,34.9v-5.9c7.5,0,13.6,6.1,13.6,13.7s-6.1,13.7-13.6,13.7v-5.9c4.3,0,7.7-3.5,7.7-7.8
		C206.3,38.3,202.8,34.9,198.6,34.9"/>
	<path class="st0" d="M198.6,20.8v8.1c-7.5,0-13.6,6.1-13.6,13.7c0,7.6,6.1,13.7,13.6,13.7v8.1c-12,0-21.7-9.8-21.7-21.8
		C176.8,30.6,186.6,20.8,198.6,20.8"/>
</g>
<line class="st1" x1="150.7" y1="20" x2="150.7" y2="65.7"/>
<g>
	<path class="st0" d="M44.4,43.2h-4v2.1c0,0.5,0.2,1,0.6,1.3c-0.4,0.3-0.6,0.8-0.6,1.3l0,12.2h4l0-12.2c0-0.5-0.2-1-0.6-1.3
		c0.4-0.3,0.6-0.8,0.6-1.3L44.4,43.2z"/>
	<path class="st0" d="M80,53.4c0,2.3-1.6,3.7-3.5,3.7c-1.9,0-3.4-1.5-3.4-3.7v-0.1c0-2.2,1.6-3.7,3.4-3.7C78.4,49.7,80,51.1,80,53.4
		L80,53.4z M77.6,46.4c-2.1,0-3.4,0.9-4.4,2.2v-1.9h-4v17.5h4v-5.8c0.9,1.1,2.3,2,4.4,2c3.4,0,6.4-2.5,6.4-7v-0.1
		C84,48.9,80.9,46.4,77.6,46.4"/>
	<path class="st0" d="M96.2,53.5c0,2.2-1.6,3.7-3.4,3.7c-1.9,0-3.5-1.5-3.5-3.7v-0.1c0-2.3,1.6-3.7,3.5-3.7
		C94.6,49.7,96.2,51.2,96.2,53.5L96.2,53.5z M96.1,48.5c-1-1.1-2.3-2-4.4-2c-3.4,0-6.4,2.5-6.4,7v0.1c0,4.5,3.1,7,6.4,7
		c2.1,0,3.4-0.9,4.4-2.2v1.9h4V46.7h-4V48.5z"/>
	<path class="st0" d="M109,57.1c-2.2,0-3.6-1.7-3.6-3.7v-0.1c0-2,1.4-3.7,3.4-3.7c1.4,0,2.3,0.6,3.2,1.5l2.5-2.5
		c-1.3-1.4-3-2.3-5.7-2.3c-4.3,0-7.4,3.2-7.4,7v0c0,3.8,3.1,7,7.4,7c2.8,0,4.4-1,5.8-2.5l-2.3-2.3C111.2,56.6,110.3,57.1,109,57.1"
		/>
	<path class="st0" d="M119.7,46.7v-3.4h-4v2.1c0,0.5,0.2,1,0.6,1.3c-0.4,0.3-0.6,0.8-0.6,1.3v12.2h4V49.9h3.3v-3.3H119.7z"/>
	<path class="st0" d="M62.8,46.4c-1.9,0-3.4,0.8-4.6,2.1c-0.7-1.4-2.1-2.1-4-2.1c-2,0-3.2,1-4.1,2.1v-1.9H46v13.5H50v-8
		c0.2-1.5,1-2.2,2.4-2.2c1.5,0,2.3,0.9,2.3,2.7v7.5h4v-7.5c0-1.8,0.9-2.7,2.4-2.7c1.5,0,2.3,0.9,2.3,2.7v7.5h4v-8.8
		C67.6,48.1,65.8,46.4,62.8,46.4"/>
	<path class="st0" d="M44.4,25.2h-4v2.1c0,0.5,0.2,1,0.6,1.3c-0.4,0.3-0.6,0.8-0.6,1.3v12.2l4,0l0-12.2c0-0.5-0.2-1-0.6-1.3
		c0.4-0.3,0.6-0.8,0.6-1.3L44.4,25.2z"/>
	<path class="st0" d="M54.1,28.4c-2,0-3.2,1-4.1,2.2v-1.9h-4v13.5h4v-7.5c0-1.8,1-2.7,2.5-2.7c1.5,0,2.4,0.9,2.4,2.7v7.5h4v-8.7
		C58.9,30.3,57.2,28.4,54.1,28.4"/>
	<path class="st0" d="M66.8,33.9c-1.5-0.5-2.9-0.9-2.9-1.6v-0.1c0-0.5,0.5-0.9,1.5-0.9c1,0,2.4,0.5,3.8,1.3l1.5-2.6
		c-1.5-1-3.5-1.6-5.3-1.6c-2.9,0-5.2,1.5-5.2,4.3v0.1c0,2.6,2.2,3.5,4.2,4c1.6,0.5,2.9,0.7,2.9,1.6v0c0,0.6-0.5,1-1.7,1
		c-1.3,0-2.9-0.6-4.5-1.6l-1.7,2.5c1.9,1.4,4.1,2,6.1,2c3.1,0,5.4-1.4,5.4-4.3v-0.1C71.1,35.5,68.8,34.6,66.8,33.9"/>
	<path class="st0" d="M88.3,34.4c0,1.8-1.5,3.1-3.5,3.1s-3.4-1.3-3.4-3.1v0c0-1.8,1.5-3.1,3.4-3.1S88.3,32.6,88.3,34.4L88.3,34.4z
		 M88.3,30.1c-1.1-1.1-2.4-2-4.6-2c-3.2,0-6.3,2.3-6.3,6.3v0c0,4,3,6.3,6.3,6.3c2.1,0,3.4-0.8,4.6-2.2v0.7c0,2.4-1.3,4-4,4
		c-1.9,0-3.3-0.5-4.8-1.2l-1.4,2.9c1.8,0.9,4,1.4,6.3,1.4c5.3,0,7.9-2.4,7.9-7.5V28.4h-4V30.1z"/>
	<path class="st0" d="M102.1,28.4c-2,0-3.2,1-4.1,2.2v-5.4h-4v16.9h4v-7.5c0-1.8,1-2.7,2.5-2.7c1.5,0,2.4,0.9,2.4,2.7v7.5h4v-8.7
		C106.9,30.3,105.1,28.4,102.1,28.4"/>
	<rect x="72.3" y="28.6" class="st0" width="4" height="13.5"/>
	<path class="st2" d="M19.7,63.1L19.7,63.1c-7,0-12.6-5.4-12.6-12c0,0,0-15.8,0-16.8c0-6.6,5.7-12,12.6-12s12.6,5.4,12.6,12l0,16.8
		C32.3,57.7,26.6,63.1,19.7,63.1 M33.5,37.4c0.9-0.8,1.5-1.9,1.5-3.1v0c0-8.1-6.9-14.6-15.3-14.6S4.3,26.2,4.3,34.2v0
		c0,1.3,0.6,2.4,1.5,3.1c-0.9,0.8-1.5,1.9-1.5,3.1l0,9.9c0,0.2,0,0.4,0,0.7h0c0,8,6.9,14.6,15.3,14.6h0C28.1,65.7,35,59.1,35,51
		l0-10.5C35,39.3,34.4,38.1,33.5,37.4"/>
	<path class="st2" d="M19.7,55.3c-2.4,0-4.4-1.9-4.4-4.2l0-10.5c0-1.2,0.6-2.4,1.5-3.1c-0.9-0.8-1.5-1.9-1.5-3.2
		c0-2.3,2-4.2,4.4-4.2c2.5,0,4.4,1.9,4.4,4.2c0,1.3-0.6,2.4-1.5,3.2c0.9,0.8,1.5,1.9,1.5,3.1l0,10.5C24.1,53.4,22.1,55.3,19.7,55.3
		 M29.4,40.5C29.4,40.5,29.4,40.5,29.4,40.5c0-1.3-0.6-2.4-1.5-3.2c0.9-0.8,1.5-1.9,1.5-3.1c0,0,0,0,0,0v0c0-5.1-4.4-9.3-9.8-9.3
		c-5.4,0-9.7,4.1-9.7,9.2c0,0,0,0,0,0.1c0,1.3,0.6,2.4,1.5,3.1c-0.9,0.8-1.5,1.9-1.5,3.1c0,0,0,0,0,0c0,4.8,0,10.5,0,10.5
		c0,5.1,4.4,9.3,9.7,9.3h0c5.4,0,9.7-4.2,9.7-9.3C29.4,51.1,29.4,45.3,29.4,40.5"/>
	<path class="st0" d="M119.3,39.2l2.3-1.5c2-1.4,3.1-2.4,3.1-4.5v0c0-2.4-1.8-4.3-4.8-4.3c-1.7,0-3,0.6-4.1,1.4v-1.7h-3.3l0-3.4h-4
		v2.1c0,0.5,0.2,1,0.6,1.3c-0.4,0.3-0.6,0.8-0.6,1.3l0,12.2v0l4,0V31.9h0v-1.6l4.3,3.5c1.1-1.1,2-1.8,2.9-1.8c0.9,0,1.5,0.5,1.5,1.3
		c0,0.8-0.7,1.5-2,2.4l-4.2,3.1c0,0,0,0,0,0c-0.5,0.4-0.8,0.9-0.8,1.5v1.7h10.7v-2.9H119.3z"/>
</g>
<path class="st3" d="M180.3,89.9L180.3,89.9 M180.3-9.6L180.3-9.6"/>
<path class="st3" d="M318.5,89.9L318.5,89.9 M318.5-9.6L318.5-9.6"/>
<path class="st3" d="M342.8,89.9L342.8,89.9 M342.8-9.6L342.8-9.6"/>
<path class="st3" d="M341.9,21.3L341.9,21.3 M16.8,21.3L16.8,21.3"/>
<path class="st3" d="M341.9,62.8L341.9,62.8 M19.5,62.8L19.5,62.8"/>
<g>
	<polygon class="st0" points="362.2,60.4 368.2,60.4 368.2,61.9 364.1,61.9 364.1,64.7 367.9,64.7 367.9,66.3 364.1,66.3 
		364.1,70.7 362.2,70.7 	"/>
	<rect x="370" y="60.4" class="st0" width="1.9" height="10.3"/>
	<path class="st0" d="M374,70.7V60.4h2.1l2.7,4.4c0.7,1.1,1.3,2.3,1.8,3.5h0c-0.1-1.4-0.2-2.7-0.2-4.3v-3.6h1.7v10.3h-1.9l-2.7-4.5
		c-0.7-1.1-1.3-2.4-1.8-3.6l0,0c0.1,1.3,0.1,2.7,0.1,4.4v3.7H374z"/>
	<path class="st0" d="M393.1,66.5c-0.1-1.3-0.1-2.9-0.1-4.3h0c-0.3,1.3-0.8,2.6-1.2,3.9l-1.5,4.5h-1.5l-1.4-4.4
		c-0.4-1.3-0.8-2.7-1-4h0c0,1.3-0.1,3-0.2,4.4l-0.2,4.1h-1.8l0.7-10.3h2.5l1.3,4.1c0.4,1.2,0.7,2.4,0.9,3.6h0c0.3-1.1,0.6-2.4,1-3.6
		l1.4-4.1h2.4l0.6,10.3h-1.8L393.1,66.5z"/>
	<path class="st0" d="M402,66.3l-0.8-2.5c-0.2-0.6-0.4-1.3-0.5-1.9h0c-0.2,0.6-0.3,1.3-0.5,1.9l-0.8,2.5H402z M399,67.7l-0.9,2.9
		h-1.9l3.3-10.3h2.4l3.3,10.3h-2l-0.9-2.9H399z"/>
	<path class="st0" d="M408.6,65h1.1c1.3,0,2.1-0.7,2.1-1.7c0-1.1-0.8-1.7-2-1.7c-0.6,0-1,0-1.2,0.1V65z M406.7,60.5
		c0.7-0.1,1.8-0.2,2.8-0.2c1.5,0,2.5,0.2,3.2,0.8c0.6,0.5,0.9,1.2,0.9,2.1c0,1.3-0.9,2.2-1.9,2.6v0c0.7,0.3,1.2,1,1.4,2
		c0.3,1.3,0.6,2.5,0.8,2.9H412c-0.2-0.3-0.4-1.1-0.7-2.4c-0.3-1.3-0.8-1.8-1.8-1.8h-0.9v4.2h-1.9V60.5z"/>
	<path class="st0" d="M415.4,60.4h1.9v4.7h0c0.2-0.4,0.5-0.8,0.7-1.1l2.7-3.6h2.3l-3.5,4.4l3.8,5.9h-2.2l-2.9-4.7l-0.9,1.1v3.6h-1.9
		V60.4z"/>
	<polygon class="st0" points="429.5,62.3 426.8,62.3 426.8,60.4 434.7,60.4 434.7,62.3 431.9,62.3 431.9,70.7 429.5,70.7 	"/>
	<path class="st0" d="M438.2,64.9h0.9c1.2,0,1.8-0.6,1.8-1.5c0-0.9-0.6-1.4-1.7-1.4c-0.6,0-0.9,0-1.1,0.1V64.9z M435.9,60.5
		c0.7-0.1,1.8-0.2,3.1-0.2c1.5,0,2.6,0.2,3.3,0.8c0.6,0.5,1,1.2,1,2.2c0,1.3-0.9,2.2-1.8,2.5v0c0.7,0.3,1.1,1,1.4,1.9
		c0.3,1.2,0.6,2.5,0.8,2.9h-2.4c-0.2-0.3-0.4-1.1-0.7-2.4c-0.3-1.3-0.7-1.6-1.7-1.7h-0.7v4.1h-2.3V60.5z"/>
	<path class="st0" d="M447.3,60.4v5.9c0,1.8,0.7,2.7,1.9,2.7c1.2,0,1.9-0.9,1.9-2.7v-5.9h2.3v5.8c0,3.2-1.6,4.7-4.3,4.7
		c-2.6,0-4.1-1.5-4.1-4.7v-5.7H447.3z"/>
	<path class="st0" d="M455.5,68.3c0.6,0.3,1.6,0.6,2.6,0.6c1.1,0,1.6-0.4,1.6-1.1c0-0.6-0.5-1-1.7-1.4c-1.7-0.6-2.8-1.6-2.8-3.1
		c0-1.8,1.5-3.1,3.9-3.1c1.2,0,2,0.2,2.6,0.5l-0.5,1.9c-0.4-0.2-1.1-0.5-2.1-0.5c-1,0-1.5,0.5-1.5,1c0,0.7,0.6,0.9,1.9,1.5
		c1.8,0.7,2.7,1.6,2.7,3.1c0,1.7-1.3,3.2-4.1,3.2c-1.2,0-2.3-0.3-2.9-0.6L455.5,68.3z"/>
	<polygon class="st0" points="465.7,62.3 462.9,62.3 462.9,60.4 470.8,60.4 470.8,62.3 468,62.3 468,70.7 465.7,70.7 	"/>
	<polygon class="st0" points="435.8,13.9 435.8,22.4 443.7,22.4 443.7,57.2 453.3,57.2 453.3,22.4 461.3,22.4 461.3,13.9 	"/>
	<path class="st0" d="M428.1,52.3V25.3l-4.4,26.5c-3.8-0.4-7.4-0.4-10.9-0.1l-4.4-26.3v26.8c-3.3,0.5-6.4,1.1-9.3,1.9l1.2-40.1h14
		l3.9,28.2l3.9-28.2h14l1.2,40.8C434.2,53.6,431.1,52.9,428.1,52.3"/>
	<polygon class="st0" points="371.8,13.9 371.8,22.4 379.7,22.4 379.7,57.2 389.3,57.2 389.3,40.5 397.7,40.5 397.7,32.5 
		389.3,32.5 389.3,22.4 400.4,22.4 400.4,13.9 	"/>
</g>
</svg>
