<?xml version="1.0" encoding="utf-8"?>
<!-- Generator: Adobe Illustrator 24.1.0, SVG Export Plug-In . SVG Version: 6.00 Build 0)  -->
<svg version="1.1" id="Layer_1" xmlns="http://www.w3.org/2000/svg" xmlns:xlink="http://www.w3.org/1999/xlink" x="0px" y="0px"
	 viewBox="0 0 358.2 85" style="enable-background:new 0 0 358.2 85;" xml:space="preserve">
<style type="text/css">
	.st0{fill-rule:evenodd;clip-rule:evenodd;fill:#FFFFFF;}
	.st1{fill-rule:evenodd;clip-rule:evenodd;fill:#F9D031;}
	.st2{fill:#FFFFFF;}
	.st3{fill:none;stroke:#FFFFFF;stroke-linecap:round;stroke-miterlimit:10;}
</style>
<g>
	<path class="st0" d="M65,41.5L65,41.5l0,3.1c0,0.8-0.3,1.5-0.9,2c0.6,0.5,0.9,1.2,0.9,2v18.3h-5.7V48.6c0-0.7,0.3-1.5,0.9-2
		c-0.6-0.5-0.9-1.2-0.9-2v-3.1L65,41.5L65,41.5z M112,46.3c4.7,0,9.1,3.7,9.1,10.5v0.1c0,6.8-4.4,10.5-9.1,10.5
		c-2.4,0-4.8-1.1-6.3-3V73h-5.7V46.7h5.7v2.9C107.2,47.7,109.1,46.3,112,46.3L112,46.3z M138.3,49.4L138.3,49.4v-2.7h5.7V67h-5.7
		v-2.9c-1.4,1.9-3.3,3.3-6.3,3.3c-4.7,0-9.1-3.7-9.1-10.5v-0.1c0-6.8,4.4-10.5,9.1-10.5C134.5,46.3,136.9,47.5,138.3,49.4
		L138.3,49.4z M156.5,62.4c1.9,0,3.2-0.8,4.6-2.1l3.3,3.4c-1.9,2.2-4.2,3.7-8.2,3.7c-2.8,0-5.4-1-7.4-3c-2-2-3.1-4.7-3-7.5v-0.1
		c0-2.8,1.1-5.5,3-7.5c2-2,4.7-3.1,7.5-3c3.8,0,6.1,1.3,8,3.4l-3.5,3.8c-1.3-1.4-2.5-2.2-4.6-2.2c-2.8,0-4.9,2.5-4.9,5.5v0.1
		C151.5,59.9,153.4,62.4,156.5,62.4z M171.7,46.7h4.7v4.9h-4.7v15.3H166V48.6c0-0.7,0.3-1.5,0.9-2c-0.6-0.5-0.9-1.2-0.9-2v-3.2h5.7
		V46.7z M91.1,46.3c4.2,0,6.8,2.6,6.8,7.4v13.2h-5.7V55.6c0-2.7-1.2-4.1-3.3-4.1s-3.4,1.4-3.4,4.1v11.3h-5.7V55.6
		c0-2.7-1.2-4.1-3.3-4.1c-1.9,0-3.2,1.2-3.4,3.4v12h-5.8V46.7H73v2.8c1.3-1.7,3-3.2,5.9-3.2c2.6,0,4.6,1.2,5.7,3.2
		C86.3,47.4,88.4,46.3,91.1,46.3L91.1,46.3z M65,14.4v3.1c0,0.8-0.3,1.5-0.9,2c0.6,0.5,0.9,1.2,0.9,2v18.3h-5.7V21.4
		c0-0.7,0.3-1.4,0.9-1.9c-0.6-0.5-0.9-1.2-0.9-2v-3.1H65z M78.8,19.2c4.3,0,6.8,2.9,6.8,7.5v13.1h-5.7V28.5c0-2.7-1.3-4.1-3.4-4.1
		c-2.2,0-3.6,1.4-3.6,4.1v11.3h-5.7V19.6h5.7v2.8C74.3,20.7,75.9,19.2,78.8,19.2L78.8,19.2z M96.8,27.6c2.8,0.9,6.1,2.3,6,6v0.1
		c0,4.5-3.3,6.5-7.7,6.5c-3.1,0-6.2-1.1-8.6-3.1l2.4-3.8c2.2,1.6,4.5,2.4,6.3,2.4c1.6,0,2.4-0.6,2.4-1.5v-0.1c0-1.2-1.9-1.7-4.2-2.3
		c-2.8-0.8-6-2.1-6-6.1v-0.1c0-4.1,3.3-6.4,7.3-6.4c2.7,0,5.3,0.9,7.5,2.3l-2.2,4c-2-1.2-4-1.9-5.4-1.9c-1.4,0-2.1,0.6-2.1,1.4v0.1
		C92.7,26.3,94.6,26.8,96.8,27.6L96.8,27.6z M127.2,21.8v-2.6h5.7v15.7c0,7.6-3.7,11.2-11.2,11.2c-3.1,0-6.1-0.7-8.9-2.1l1.9-4.3
		c2.1,1.2,4.4,1.9,6.8,1.8c3.9,0,5.7-2.4,5.7-6.1v-1c-1.7,2-3.5,3.3-6.5,3.3c-4.7,0-8.9-3.4-8.9-9.4v-0.1c0-6,4.3-9.4,8.9-9.4
		C123.8,18.8,125.7,20.1,127.2,21.8L127.2,21.8z M146.8,19.2c4.3,0,6.8,2.9,6.8,7.5v13.1h-5.7V28.5c0-2.7-1.3-4.1-3.4-4.1
		s-3.6,1.4-3.6,4.1v11.3h-5.7V14.4h5.7v8C142.2,20.7,143.9,19.2,146.8,19.2L146.8,19.2z M104.5,19.5h5.7v20.3h-5.7V19.5L104.5,19.5z
		 M171.2,35.4L171.2,35.4l7.9,0v4.4H164v-2.6c0-0.9,0.4-1.7,1.1-2.3l0,0l6-4.6c1.8-1.4,2.8-2.4,2.8-3.7c0-1.2-0.8-2-2.1-2
		c-1.3,0-2.6,0.9-4.1,2.7l-6-5.2v17.7H156V21.5c0-0.7,0.3-1.5,0.9-2c-0.6-0.5-0.9-1.2-0.9-2v-3.2h5.7v5.1h4.7v2.5
		c1.6-1.4,3.7-2.2,5.8-2.2c4.2,0,6.8,2.8,6.8,6.4v0c0,3.1-1.6,4.7-4.4,6.8L171.2,35.4L171.2,35.4z M115.5,56.8L115.5,56.8
		c0-3.4-2.2-5.7-4.9-5.7c-2.7,0-4.9,2.2-4.9,5.6v0.1c0,3.4,2.2,5.6,4.9,5.6C113.2,62.4,115.5,60.2,115.5,56.8z M138.4,56.9
		L138.4,56.9c0-3.4-2.2-5.7-4.9-5.7c-2.6,0-4.9,2.2-4.9,5.6v0.1c0,3.4,2.2,5.6,4.9,5.6C136.2,62.5,138.4,60.3,138.4,56.9z
		 M127.3,28.3L127.3,28.3c0-2.8-2.1-4.8-4.9-4.8c-2.8,0-4.9,1.9-4.9,4.7v0.1c0,2.8,2.1,4.7,4.9,4.7C125.1,33,127.3,31.1,127.3,28.3z
		"/>
	<path class="st1" d="M49.5,32.6c1.3,1.2,2.1,2.9,2.1,4.7v15.8c0,12.1-9.7,21.9-21.7,21.9c-12,0-21.7-9.8-21.7-21.9h0
		c0-0.4,0-0.7,0-1V37.3c0-1.8,0.8-3.5,2.1-4.7c-1.3-1.2-2.1-2.9-2.1-4.7v0c0-12.1,9.7-21.9,21.8-21.9s21.8,9.8,21.8,21.9v0
		C51.6,29.7,50.8,31.4,49.5,32.6L49.5,32.6z M29.9,71.2c9.9,0,17.9-8.1,17.9-18.1V27.8c0.1-6.5-3.2-12.7-8.8-16
		c-5.6-3.3-12.5-3.3-18.1,0c-5.6,3.3-9,9.4-8.8,16v25.3C12,63.1,20,71.2,29.9,71.2L29.9,71.2z M43.7,37.3c0,7.2,0,15.8,0,15.8
		c0,7.7-6.2,13.9-13.8,13.9c-7.6,0-13.8-6.2-13.8-13.9V37.3v0c0-1.8,0.8-3.5,2.1-4.7c-1.3-1.2-2.1-2.9-2.1-4.7v-0.1
		c0.2-7.6,6.4-13.6,13.8-13.6c7.5,0,13.6,6.1,13.8,13.6v0c0,1.8-0.8,3.5-2.1,4.7C42.9,33.8,43.7,35.5,43.7,37.3L43.7,37.3z
		 M29.9,59.5L29.9,59.5c3.5,0,6.3-2.8,6.3-6.3V37.3c0-1.8-0.8-3.5-2.1-4.7c2-1.8,2.6-4.5,1.7-7c-0.9-2.5-3.3-4.1-5.9-4.1
		c-2.6,0-5,1.6-5.9,4.1c-0.9,2.5-0.3,5.2,1.7,7c-1.3,1.2-2.1,2.9-2.1,4.7v15.8C23.6,56.7,26.4,59.5,29.9,59.5L29.9,59.5z"/>
</g>
<g>
	<g>
		<g>
			<path class="st2" d="M230.5,65.4h6.9v1.8h-4.7v3.3h4.4v1.8h-4.4v5.1h-2.2V65.4z"/>
			<path class="st2" d="M241.7,65.4v12h-2.2v-12H241.7z"/>
			<path class="st2" d="M244.2,77.4v-12h2.5l3.1,5.1c0.8,1.3,1.5,2.7,2,4h0c-0.1-1.6-0.2-3.1-0.2-5v-4.2h2v12h-2.3l-3.1-5.2
				c-0.8-1.3-1.6-2.8-2.1-4.1l-0.1,0c0.1,1.5,0.1,3.1,0.1,5.1v4.3H244.2z"/>
			<path class="st2" d="M266.3,72.5c-0.1-1.5-0.2-3.4-0.1-5h-0.1c-0.4,1.5-0.9,3.1-1.4,4.6l-1.7,5.2h-1.7l-1.6-5.1
				c-0.5-1.5-0.9-3.2-1.2-4.6h0c-0.1,1.6-0.1,3.5-0.2,5.1l-0.3,4.8h-2l0.8-12h2.9l1.6,4.8c0.4,1.4,0.8,2.8,1.1,4.1h0.1
				c0.3-1.3,0.7-2.8,1.2-4.2l1.6-4.8h2.8l0.7,12h-2.1L266.3,72.5z"/>
			<path class="st2" d="M273.2,74l-1,3.4h-2.3l3.8-12h2.8l3.9,12h-2.3L277,74H273.2z M276.6,72.3l-0.9-2.9c-0.2-0.7-0.4-1.5-0.6-2.2
				h0c-0.2,0.7-0.4,1.5-0.6,2.2l-0.9,2.9H276.6z"/>
			<path class="st2" d="M282.1,65.6c0.8-0.1,2-0.2,3.3-0.2c1.7,0,2.9,0.3,3.7,1c0.7,0.5,1,1.4,1,2.4c0,1.5-1,2.6-2.2,3v0.1
				c0.9,0.3,1.4,1.2,1.7,2.3c0.4,1.5,0.7,2.9,0.9,3.3h-2.3c-0.2-0.4-0.5-1.3-0.8-2.8c-0.3-1.6-0.9-2.1-2.1-2.1h-1.1v4.9h-2.2V65.6z
				 M284.2,70.9h1.3c1.5,0,2.4-0.8,2.4-2c0-1.3-0.9-1.9-2.3-1.9c-0.7,0-1.1,0.1-1.3,0.1V70.9z"/>
			<path class="st2" d="M292.2,65.4h2.2v5.5h0.1c0.3-0.5,0.6-0.9,0.9-1.3l3.1-4.2h2.7l-4.1,5.1l4.4,6.9h-2.6l-3.4-5.5l-1.1,1.3v4.2
				h-2.2V65.4z"/>
		</g>
		<g>
			<g>
				<path class="st2" d="M308.6,67.7h-3.2v-2.3h9.2v2.3h-3.3v9.7h-2.7V67.7z"/>
				<path class="st2" d="M316,65.6c0.9-0.2,2.1-0.3,3.6-0.3c1.8,0,3,0.3,3.9,1c0.7,0.6,1.1,1.4,1.1,2.5c0,1.5-1.1,2.6-2.1,2.9v0.1
					c0.8,0.3,1.3,1.1,1.6,2.2c0.4,1.4,0.7,2.9,1,3.4h-2.8c-0.2-0.4-0.5-1.3-0.8-2.8c-0.3-1.5-0.9-1.9-2-1.9h-0.8v4.7H316V65.6z
					 M318.6,70.7h1.1c1.3,0,2.1-0.7,2.1-1.7c0-1.1-0.7-1.6-2-1.6c-0.7,0-1,0-1.2,0.1V70.7z"/>
				<path class="st2" d="M329.2,65.4v6.9c0,2.1,0.8,3.1,2.2,3.1c1.4,0,2.2-1,2.2-3.1v-6.9h2.7v6.7c0,3.7-1.9,5.4-5,5.4
					c-3,0-4.8-1.7-4.8-5.5v-6.7H329.2z"/>
				<path class="st2" d="M338.7,74.6c0.7,0.4,1.8,0.7,3,0.7c1.2,0,1.9-0.5,1.9-1.3c0-0.7-0.6-1.2-2-1.7c-2-0.7-3.3-1.8-3.3-3.5
					c0-2,1.7-3.6,4.5-3.6c1.4,0,2.3,0.3,3.1,0.6l-0.6,2.2c-0.5-0.2-1.3-0.6-2.5-0.6c-1.2,0-1.7,0.5-1.7,1.2c0,0.8,0.7,1.1,2.2,1.7
					c2.1,0.8,3.1,1.9,3.1,3.6c0,2-1.5,3.7-4.8,3.7c-1.4,0-2.7-0.4-3.4-0.7L338.7,74.6z"/>
				<path class="st2" d="M350.5,67.7h-3.2v-2.3h9.2v2.3h-3.3v9.7h-2.7V67.7z"/>
			</g>
		</g>
	</g>
	<g>
		<polygon class="st2" points="315.8,11.5 315.8,21.3 325,21.3 325,61.8 336.1,61.8 336.1,21.3 345.4,21.3 345.4,11.5 		"/>
		<g>
			<path class="st2" d="M306.9,56.1V24.7l-5.1,30.7c-4.4-0.4-8.6-0.5-12.7-0.2l-5.1-30.5v31.1c-3.8,0.5-7.4,1.3-10.7,2.2l1.4-46.5
				H291l4.5,32.7l4.5-32.7h16.2l1.4,47.3C314,57.6,310.4,56.7,306.9,56.1"/>
		</g>
		<polygon class="st2" points="241.5,11.5 241.5,21.3 250.8,21.3 250.8,61.8 261.9,61.8 261.9,42.4 271.7,42.4 271.7,33.1 
			261.9,33.1 261.9,21.3 274.8,21.3 274.8,11.5 		"/>
	</g>
</g>
<line class="st3" x1="203.2" y1="11.5" x2="203.2" y2="70.7"/>
</svg>
